/* XPM */
static char *c115_xpm[]={
"100 140 16 1",
"  c #09090a",
". c #898884",
"X c #c8c7c7",
"o c #494a4a",
"O c #a4a69a",
"+ c #686868",
"@ c #9d9998",
"# c #787876",
"$ c #949789",
"% c #28292b",
"& c none",
"* c #b2b1b3",
"= c #363739",
"- c #575758",
"; c #d8d7d6",
": c #191a1b",
"&&&&&&&&&&&&&&&&&&&&&&&&&&&&&&&&&&&&&&&&&&&&&&&&&&&&&&&&&&&&&&&&&&&&&&&&&&&&&&&&&&&&&&&&&&&&&&&&&&&&",
"&&&&&&&&&&&&&&&&&&&&&&&&&&&&&&&&&&&&&&&&&&;;XX**@*@@**X;&&&&&&&&&&&&&&&&&&&&&&&&&&&&&&&&&&&&&&&&&&&&",
"&&&&&&&&&&&&&&&&&&&&&&&&&&&&&&&&&&&&&&&;X@*@....#......@@X;&&&&&&&&&&&&&&&&&&&&&&&&&&&&&&&&&&&&&&&&&",
"&&&&&&&&&&&&&&&&&&&&&&&&&&&&&&&&&&&&&&***@.##########....$@*;&&&&&&&&&&&&&&&&&&&&&&&&&&&&&&&&&&&&&&&",
"&&&&&&&&&&&&&&&&&&&&&&&&&&&&&&&&&&&&X@*@.###++++#+#######.#.@O&&&&&&&&&&&&&&&&&&&&&&&&&&&&&&&&&&&&&&",
"&&&&&&&&&&&&&&&&&&&&&&&&&&&&&&&&&&;X**@.#+++++++##+####+#-++##$;&&&&&&&&&&&&&&&&&&&&&&&&&&&&&&&&&&&&",
"&&&&&&&&&&&&&&&&&&&&&&&&&&&&&&&&&;*@*@##++++-++++++#+###++oo-++#*&&&&&&&&&&&&&&&&&&&&&&&&&&&&&&&&&&&",
"&&&&&&&&&&&&&&&&&&&&&&&&&&&&&&&&;***@.++--+-++-+++#+#+++-#o.+o-++*&&&&&&&&&&&&&&&&&&&&&&&&&&&&&&&&&&",
"&&&&&&&&&&&&&&&&&&&&&&&&&&&&&&&X@**@.+++-----++++++#+#+%-+-o#o=+--O&&&&&&&&&&&&&&&&&&&&&&&&&&&&&&&&&",
"&&&&&&&&&&&&&&&&&&&&&&&&&&&&&&X***@.#+--------+++++++++%-+#=+:o=---O&&&&&&&&&&&&&&&&&&&&&&&&&&&&&&&&",
"&&&&&&&&&&&&&&&&&&&&&&&&&&&&&X@**@@.++-o-o---+-+++++++-%-+.+o==:--ooX&&&&&&&&&&&&&&&&&&&&&&&&&&&&&&&",
"&&&&&&&&&&&&&&&&&&&&&&&&&&&&;@@*@@.#+---o-----++++o=+#OO---+=#:=%--o-;&&&&&&&&&&&&&&&&&&&&&&&&&&&&&&",
"&&&&&&&&&&&&&&&&&&&&&&&&&&&&.@**@@.++--ooo----+-=-$**X**-+=-+oo=:+-oo-&&&&&&&&&&&&&&&&&&&&&&&&&&&&&&",
"&&&&&&&&&&&&&&&&&&&&&&&&&&&@.**@*.#++-oo-----+=-@O*X****.--+++-=:---o=@&&&&&&&&&&&&&&&&&&&&&&&&&&&&&",
"&&&&&&&&&&&&&&&&&&&&&&&&&&X#@*@*@.++--o-oo--o=.OO*****OO@#o-++-o:.$+oooX&&&&&&&&&&&&&&&&&&&&&&&&&&&&",
"&&&&&&&&&&&&&&&&&&&&&&&&&&##**@*@##+-ooo-o-=o@OO****@.#+++:o++-o:@*.-o=+&&&&&&&&&&&&&&&&&&&&&&&&&&&&",
"&&&&&&&&&&&&&&&&&&&&&&&&&*+@X@*@@#+---oooo%+O@O***$..$$$.$#%=o=:oO*O#-o=@&&&&&&&&&&&&&&&&&&&&&&&&&&&",
"&&&&&&&&&&&&&&&&&&&&&&&&&##@*@*@.#++-o-oo=+O@O**O.$$O$O$$.$.+=o+#-#OO.-=-;&&&&&&&&&&&&&&&&&&&&&&&&&&",
"&&&&&&&&&&&&&&&&&&&&&&&&*-.****@.#+--ooo=-*OO**@.$OO$O@OO$$$$$$..++-OO.-=.&&&&&&&&&&&&&&&&&&&&&&&&&&",
"&&&&&&&&&&&&&&&&&&&&&&&&#+@****@##+--oo=o*O@**$$@O$OOOOOOO$@$@$O$.++-$O#oo;&&&&&&&&&&&&&&&&&&&&&&&&&",
"&&&&&&&&&&&&&&&&&&&&&&&;-#****@@.++-ooo%*OOO*$$$O$OO$OOOOOOOO$O$@$.#+-$O+o@&&&&&&&&&&&&&&&&&&&&&&&&&",
"&&&&&&&&&&&&&&&&&&&&&&&@-.*X***.##+--o%@*O@*O$O$OO$OOO$OO$OOOOOOO$$$++-O$--&&&&&&&&&&&&&&&&&&&&&&&&&",
"&&&&&&&&&&&&&&&&&&&&&&&#+.***X@@#+--o=-XO$*O$$OO$OO$OOOOOOOOO$O$O$O$.#+-O.-*&&&&&&&&&&&&&&&&&&&&&&&&",
"&&&&&&&&&&&&&&&&&&&&&&;-+@X***@.#++oo:X*@O*.#$$$OOOOO$OOOOOOO$O$O$O$$.++#O+.&&&&&&&&&&&&&&&&&&&&&&&&",
"&&&&&&&&&&&&&&&&&&&&&&O++@X***@.#+--%+;O$*O++++++##$$OOOOOOOOOO$OO$O$$.+-$$-&&&&&&&&&&&&&&&&&&&&&&&&",
"&&&&&&&&&&&&&&&&&&&&&&#-#*X***@.++--%X*@@*#+######+++++##$$OOOOO$OOO$O$#++O+X&&&&&&&&&&&&&&&&&&&&&&&",
"&&&&&&&&&&&&&&&&&&&&&&++.*X***@.#+-=-;O$OO++#.....#.#####+++##.$$O$O$O$$#+.$@&&&&&&&&&&&&&&&&&&&&&&&",
"&&&&&&&&&&&&&&&&&&&&&;-+@*X*X*@##+-:OX@@*.-#.$....$....#.#####+#+##$$O$$.+#O#&&&&&&&&&&&&&&&&&&&&&&&",
"&&&&&&&&&&&&&&&&&&&&&*++@*X***@.#-o%&*.OO#+#...$$.$.$.$$.$....####+#++##.++$.&&&&&&&&&&&&&&&&&&&&&&&",
"&&&&&&&&&&&&&&&&&&&&&.++@*X***.#++o-;O.O@#+#.....$..$...$.$$.$$....####++-+#$X&&&&&&&&&&&&&&&&&&&&&&",
"&&&&&&&&&&&&&&&&&&&&&#+#@*X*X@@.++%@X@$*$.+#$.$$$$$$$.$$.$$.$.$$$$$$$$..#+-+@@&&&&&&&&&&&&&&&&&&&&&&",
"&&&&&&&&&&&&&&&&&&&&&++#@*X*X@@#++%X*.@O..+#$$$$$$$$$$$$$$$$$$$$$$$$$$$$.#-+$.&&&&&&&&&&&&&&&&&&&&&&",
"&&&&&&&&&&&&&&&&&&&&;++#**X***@##-=;O.@O$.+#$$$$$$$$O$OO$#ooo+.O$$$$$$$$.#+++$;&&&&&&&&&&&&&&&&&&&&&",
"&&&&&&&&&&&&&&&&&&&&;-+.@*X**@@#+-o&@.*$@.+#$$$$O$O$OO$$o%=%=%=-OOOOOOO$$#+++$X&&&&&&&&&&&&&&&&&&&&&",
"&&&&&&&&&&&&&&&&&&&&X--.@*XX**..+o+;..O.$$+#$$$$$O$O$O$o%==%=%=%-OOOOOOO$.##-$O&&&&&&&&&&&&&&&&&&&&&",
"&&&&&&&&&&&&&&&&&&&&*-+.***X**.#+o.;..*.O.+.$$$$O$OOOO-%=%+==%o=%-OOOOOOO.#.-.@&&&&&&&&&&&&&&&&&&&&&",
"&&&&&&&&&&&&&&&&&&&&@-+.***;*@@##=@X..O.$$+#$$$$OO$OO$%==%$o=%+o=%.OOOOO$.#$-#.&&&&&&&&&&&&&&&&&&&&&",
"&&&&&&&&&&&&&&&&&&&&.++.***X**.#+=@X..*.$.+.$$$O$OOOO+=%==O+=%$+%=oOOOOOO.#$-+$&&&&&&&&&&&&&&&&&&&&&",
"&&&&&&&&&&&&&&&&&&&&#-+.*X@X**@##=*X#.O.O$+#$$O$OOOOOo=%=-O$%=O.=%=$OOOO$$#$+o$;&&&&&&&&&&&&&&&&&&&&",
"&&&&&&&&&&&&&&&&&&&&#-+.*X@*X*.#+=*X#.*#O.+.$$$OOOOOOo%=%+OO=oOO=%=+OOOOO.#$#o$X&&&&&&&&&&&&&&&&&&&&",
"&&&&&&&&&&&&&&&&&&&&#+-.*X**X*@##=@X#.*.O$+#$$OOOOOOOo=%=$OOo+OOo==-OOOO$$#$#=$X&&&&&&&&&&&&&&&&&&&&",
"&&&&&&&&&&&&&&&&&&&&+++.***@X*..+o.X#.*#O.+.$$O$OOOOOo=%=$o#+#$$+%%=OOOOO$#$.=$X&&&&&&&&&&&&&&&&&&&&",
"&&&&&&&&&&&&&&&&&&&&#-+.*X*.XX@#+o+;##*#$$+#$$OOOOOOO-=%--%%##%=.==oOOOO$$#$#o.*&&&&&&&&&&&&&&&&&&&&",
"&&&&&&&&&&&&&&&&&&&&+++.@XX#*X*##o-;.#O.$.+.$$OOOOOOO$%=-==%-o=%+==oOOOOO$#$.=$*&&&&&&&&&&&&&&&&&&&&",
"&&&&&&&&&&&&&&&&&&&&+++.**X.@X*#++=;.#O$$$+#$$OOOOOOOO=%#%=%==%=oo=-OOOO$.#$.o.*&&&&&&&&&&&&&&&&&&&&",
"&&&&&&&&&&&&&&&&&&&&#+-.@XX.@*X.+-%;@+@O..+.$OO$OOOOOO#======%=%=-%.OOOOO$#$.o$*&&&&&&&&&&&&&&&&&&&&",
"&&&&&&&&&&&&&&&&&&&&+++.**X@#*X@+-:*@#.*#$+#$$OOOOOOOOOo==========oOOOOO$.#$.o$*&&&&&&&&&&&&&&&&&&&&",
"&&&&&&&&&&&&&&&&&&&&#-+#@XX*+@X*+-=.*##*..+.$OOOOOOOOOO$==========.OOOOOO$#$#+$O&&&&&&&&&&&&&&&&&&&&",
"&&&&&&&&&&&&&&&&&&&&#++#@*XX+.*X#-==;.#O@#+#$$OOOOOOOOOO$o=======#OOOOOOO.#$#-@*&&&&&&&&&&&&&&&&&&&&",
"&&&&&&&&&&&&&&&&&&&&#++#@*XX##@X@-o:X.#@O#+.$OOOOOOOOOOOOO#o===-$OOOOOOOO$#$++$*&&&&&&&&&&&&&&&&&&&&",
"&&&&&&&&&&&&&&&&&&&&#-+#@*XX.+.**+o%.O+.*.+#$OOOOOOOOOOOOOOOO$OOOOOOOOOO$.#$++@X&&&&&&&&&&&&&&&&&&&&",
"&&&&&&&&&&&&&&&&&&&&#+-#@*XX*-.@*#o%=X##OO+#$O$OOOOOOOOOOOOOOOOOOOOOOOOOO$+$+#$X&&&&&&&&&&&&&&&&&&&&",
"&&&&&&&&&&&&&&&&&&&&#-+#.*XX*-#.*@o=:*.#.*##$OOOOOOOOOOOOOOOOOOOOOOOOOOO$$##+.@;&&&&&&&&&&&&&&&&&&&&",
"&&&&&&&&&&&&&&&&&&&&.--#@*XX*++#@*-=:o*#.O@#$$OOOOOOOOOOOOOOOOOOOOOOOOOOO.+#+$.;&&&&&&&&&&&&&&&&&&&&",
"&&&&&&&&&&&&&&&&&&&&#--+.@XXX.-+.@.%%:*.#@O..$$$$$$$$$$O$O$O$O$O$OOOOOOO$$++#O#&&&&&&&&&&&&&&&&&&&&&",
"&&&&&&&&&&&&&&&&&&&&.-++.**XX@o+#.@o%:-O#.*@#..$.$$$$$$$$$$$$$$$$$$$$$$$$#-##O.&&&&&&&&&&&&&&&&&&&&&",
"&&&&&&&&&&&&&&&&&&&&.---.@*X**=-+#@#%::@.#.*..$$$$$$$$$$$$$$$$$$$$$$.$.$.#-.@..&&&&&&&&&&&&&&&&&&&&&",
"&&&&&&&&&&&&&&&&&&&&.--+#@*X**+o+#..%%:=*..@*#.$@$O$@$O$@$O$@$O$$@$@$$$@$.+#O#@&&&&&&&&&&&&&&&&&&&&&",
"&&&&&&&&&&&&&&&&&&&&$---#@*XX*#=-+#.+:::+@..O@+$@@$O$O$O$O$O$O$$@$$$$$$$.+#.O-@&&&&&&&&&&&&&&&&&&&&&",
"&&&&&&&&&&&&&&&&&&&&@---#@*X**.=o-+..%::%@..@O.#$@$O@$O$O$@@$$@$@$@$@$$$.##O.=*&&&&&&&&&&&&&&&&&&&&&",
"&&&&&&&&&&&&&&&&&&&&@-+-#.**X*@==o++#-::%=@@.@*##@@$O$@O@$O$O$@@$$$$$$$.+#.O+:*&&&&&&&&&&&&&&&&&&&&&",
"&&&&&&&&&&&&&&&&&&&&*--o#.**X*@-%oo++#::%=oO@.O@##@@@@$O$O$O$@$$@$$$$$.###*.o *&&&&&&&&&&&&&&&&&&&&&",
"&&&&&&&&&&&&&&&&&&&&*-+-+.**X*@+%=o-+#-:%==-O.@OO+#$$O$OO$@$$@@$$$$$$.##+*@+% *&&&&&&&&&&&&&&&&&&&&&",
"&&&&&&&&&&&&&&&&&&&&X-+o#.@X**@.%==--++%%%==+@@@OO#+$@@$$O$@@$$@$$.$.##+*@#o  X&&&&&&&&&&&&&&&&&&&&&",
"&&&&&&&&&&&&&&&&&&&&Xo+-+.@*X*@.=%==--+-%%%o=+@.@@*.-#@@@@@$$@$$$$$.++#O*.-%  X&&&&&&&&&&&&&&&&&&&&&",
"&&&&&&&&&&&&&&&&&&&&X--o+#@****.o%%=oo-+====oo-@@@@O@#-#$@$@$$$$..#-+.**.-o%  ;&&&&&&&&&&&&&&&&&&&&&",
"&&&&&&&&&&&&&&&&&&&&;o---#@***@@-%===o---=====o-.@@@*@@#++#.$..#++-.**@.-o=%  ;&&&&&&&&&&&&&&&&&&&&&",
"&&&&&&&&&&&&&&&&&&&&;o---#@****.+%%===o--o=oooo-o#@.@O*@@@##++##.@**@@.-ooo%::;&&&&&&&&&&&&&&&&&&&&&",
"&&&&&&&&&&&&&&&&&&&&&o---#@***@@#==%%=oo--==oooo-=+..@@@O@O@@@@*@*@@.#ooo=%=-=;&&&&&&&&&&&&&&&&&&&&&",
"&&&&&&&&&&&&&&&&&&&&;o--o+.@***.#=%===o==#o===o----o+#.@@@O@@@@@@@.#-o--o%+.-=&&&&&&&&&&&&&&&&&&&&&&",
"&&&&&&&&&&&&&&&&&&&&&o---+.***@@#o=%==o%#;@#+#+o-------+#####..##+-o----=o@#o=&&&&&&&&&&&&&&&&&&&&&&",
"&&&&&&&&&&&&&&&&&&&&&oo-o+.@***@.o=====%#;O@#.@@#---------o-ooo-o----=:-%+.+=o&&&&&&&&&&&&&&&&&&&&&&",
"&&&&&&&&&&&&&&&&&&&&&-o-o+.@***@#+=====%.;@@..@@@+-=%=----+--+-+-+o=:=#+%#.-%+&&&&&&&&&&&&&&&&&&&&&&",
"&&&&&&&&&&&&&&&&&&&&&-=--+.@**@@.+====o%#;@@.#.@@#o:--%%=oo--o-==:%o#..-%.@#=#&&&&&&&&&&&&&&&&&&&&&&",
"&&&&&&&&&&&&&&&&&&&&&-o+-+#@***@.#o====%+;@@@..@@#o%-@@.+-o==%%==-+.@..==@.o%.&&&&&&&&&&&&&&&&&&&&&&",
"&&&&&&&&&&&&&&&&&&&&&+=--+#@***@.#o====%-;@.@.@@@.-%o@@@@@@.####++#@@@#%-@oo:*&&&&&&&&&&&&&&&&&&&&&&",
"&&&&&&&&&&&&&&&&&&&&&+=+-+#.***@.#o===o==;@@@@;@@@-%=@*OO@O@..#+-+.@@@#:##=%%*&&&&&&&&&&&&&&&&&&&&&&",
"&&&&&&&&&&&&&&&&&&&&&#%+++#@***@@#-o=o===X@@@.@#@@+%=@@@@O@@.#@#+.@@..+%o%  %X&&&&&&&&&&&&&&&&&&&&&&",
"&&&&&&&&&&&&&&&&&&&&&#=-+-#.***@.#-=o=o=:*@@@@...@+=%.@O@@O@@.;...@@@.+-::%%=;&&&&&&&&&&&&&&&&&&&&&&",
"&&&&&&&&&&&&&&&&&&&&&#%o-+#.@**@.#+o=ooo:-#++#####+o%#@@O@@@@@.@@@.@@@-%%-o%o;&&&&&&&&&&&&&&&&&&&&&&",
"&&&&&&&&&&&&&&&&&&&&&.:---#.****.#-oo=ooo==%%%%::o-o%#@@@@@@.....@@@@@%o+oo%-;&&&&&&&&&&&&&&&&&&&&&&",
"&&&&&&&&&&&&&&&&&&&&&@:o--#.@**@.#+oooooo=%:::%%-++-:+@@@@@@+oo+.@@@*#:+-o==-&&&&&&&&&&&&&&&&&&&&&&&",
"&&&&&&&&&&&&&&&&&&&&&@:o+-+.@***.#+ooo=o=%.##++o==-o:-@@@@.-%=o=#@@*@#%+=o=%+&&&&&&&&&&&&&&&&&&&&&&&",
"&&&&&&&&&&&&&&&&&&&&&*%o--#.@**@.#-oooooo:.@.@@$$.#-:=@.@@#=-.@-+@@@.-=+=o%=#&&&&&&&&&&&&&&&&&&&&&&&",
"&&&&&&&&&&&&&&&&&&&&&*:o--+#@**@.#+oooooo%-@@@@@@@.-:=.#.@o=.*X.+@**.oo-o=%=.&&&&&&&&&&&&&&&&&&&&&&&",
"&&&&&&&&&&&&&&&&&&&&&X:=--+.@**@@#+oooooo=%@@@@@@@@-:%##+.=+@*X.+@X*.%--o%%=@&&&&&&&&&&&&&&&&&&&&&&&",
"&&&&&&&&&&&&&&&&&&&&&X:=-o+#@@*@.#+o-ooooo:#@@@##@@+:=##*#=#@@*.+@@.+%+oo%==O&&&&&&&&&&&&&&&&&&&&&&&",
"&&&&&&&&&&&&&&&&&&&&&;:%--+#@**@.#+oooo-oo%=@@@+@#@+:%+#*#=..*@##@@.o%+-=%==*&&&&&&&&&&&&&&&&&&&&&&&",
"&&&&&&&&&&&&&&&&&&&&&;:=oo+#@@*@.#+oo-ooo-o:+@$#@.@+%%+-#.=-..#+@@@.=o+o%===;&&&&&&&&&&&&&&&&&&&&&&&",
"&&&&&&&&&&&&&&&&&&&&&;:%o--#.**@.#-oooooooo%=.@+@@@#=%++..+%=o-@@@..%--=====;&&&&&&&&&&&&&&&&&&&&&&&",
"&&&&&&&&&&&&&&&&&&&&&&:%-o+#@**@.#+ooo-ooooo:o@@@@@#=%##@@.##.*@@@@+%+o====o;&&&&&&&&&&&&&&&&&&&&&&&",
"&&&&&&&&&&&&&&&&&&&&&&%:o--#.@*@.#+-oooo-ooo=:-@@@@#o%.@.@@@@O@@@@.+%o====-o&&&&&&&&&&&&&&&&&&&&&&&&",
"&&&&&&&&&&&&&&&&&&&&&&%%-o-#.@*@.#+ooo-ooo-oo=:-@@@#o%#@@.@@@*@@.@.-%%=%-*#-&&&&&&&&&&&&&&&&&&&&&&&&",
"&&&&&&&&&&&&&&&&&&&&&&=:oo-#.**@.#--oo-oooooo-=:-.@#o%#@.@@O*;@@@@.=%%%+**#-&&&&&&&&&&&&&&&&&&&&&&&&",
"&&&&&&&&&&&&&&&&&&&&&&o:-o-#.@*@.#+-o-ooooooooo=:=#+-%#.@@O*@*.#..+=:%+.*@-+&&&&&&&&&&&&&&&&&&&&&&&&",
"&&&&&&&&&&&&&&&&&&&&&&o:o--#.@*@.#--oo-o-ooooooo=%=--:#.@@@@@.#++--=%+.@X+o#&&&&&&&&&&&&&&&&&&&&&&&&",
"&&&&&&&&&&&&&&&&&&&&&&-:ooo#.@*@.#+oooooo-oo-oooo-oo-%o+#..##++----==.*@.-o.&&&&&&&&&&&&&&&&&&&&&&&&",
"&&&&&&&&&&&&&&&&&&&&&&+:=oo#.**@.#--oo-%%=o-ooooooo-oo===o-++-=%=--%=+*.-oo@&&&&&&&&&&&&&&&&&&&&&&&&",
"&&&&&&&&&&&&&&&&&&&&&&. ooo#.@@@.#--o-=o@+-===o=oooo-----o=%%o#@O#-:=+#-=oo*&&&&&&&&&&&&&&&&&&&&&&&&",
"&&&&&&&&&&&&&&&&&&&&&&. ooo#.**@.#+oo-==@O*O@.+-oooo-=%%o-+.@OOO*#o%o+-=o-=*&&&&&&&&&&&&&&&&&&&&&&&&",
"&&&&&&&&&&&&&&&&&&&&&&@:=oo#.@@@.++-ooo%@@@O***O*+oo-=#*@OOOO****#o:--=+O-oX&&&&&&&&&&&&&&&&&&&&&&&&",
"&&&&&&&&&&&&&&&&&&&&&&@ ooo+@@*@##--ooo%@@@OX*O@@.oo-=-@O*X**X**@+=%o%+@*+oX&&&&&&&&&&&&&&&&&&&&&&&&",
"&&&&&&&&&&&&&&&&&&&&&&* =oo#.@@@.#+-oo-:@@@.XOO@@.-oo=o@@@X*X**@+-==%+@*@oo;&&&&&&&&&&&&&&&&&&&&&&&&",
"&&&&&&&&&&&&&&&&&&&&&&X =oo+@@*@.#--o-o=%o.@@***..-o-==.@*X@*@@+--=%+.@X#oo&&&&&&&&&&&&&&&&&&&&&&&&&",
"&&&&&&&&&&&&&&&&&&&&&&; %oo+.@@@.++-oo-o-o%=-#....-o-==.#....#++--=-.@X.oo-;&&&&&&&&&&&&&&&&&&&&&&&&",
"&&&&&&&&&&&&&&&&&&&&&&;:%oo+.@@@##+oo-o-----o===---o-o%+++-+--=:o-==@*.-o=-&&&&&&&&&&&&&&&&&&&&&&&&&",
"&&&&&&&&&&&&&&&&&&&&&&&::oo+@@@@.++-oo-o==oo------o-o-oo--o=%=+.#-==..-==o+&&&&&&&&&&&&&&&&&&&&&&&&&",
"&&&&&&&&&&&&&&&&&&&&&&;%%oo-.@*..++-oo-%+#+o====%=-o--=:%%o+.@**.-%=+-=-+=+&&&&&&&&&&&&&&&&&&&&&&&&&",
"&&&&&&&&&&&&&&&&&&&&&&&%%oo+@@@@##--oo-%#OO*O*@@@#ooo-=.@@*O*OOO.-%o-%-O#o.&&&&&&&&&&&&&&&&&&&&&&&&&",
"&&&&&&&&&&&&&&&&&&&&&&&o%oo-.@@@##+-o--%-@OOXXOO*O+o-o=@*OX@@X**.o%=%-@@.=.&&&&&&&&&&&&&&&&&&&&&&&&&",
"&&&&&&&&&&&&&&&&&&&&&&&-%oo+.@@@.++-oo-%-@$*;*X*O@#-o-%@@@;@#X*@+o=%-.@*-=.&&&&&&&&&&&&&&&&&&&&&&&&&",
"&&&&&&&&&&&&&&&&&&&&&&&+:=o-.@@@##--o--%o*@@XOX;*@#-o-:#@**@@@@#+o%-#.*#=o*&&&&&&&&&&&&&&&&&&&&&&&&&",
"&&&&&&&&&&&&&&&&&&&&&&&.:oo-.@@@##+-oo-o==+.$@@@@.#o--:#...@@.+---=+**.-o=X&&&&&&&&&&&&&&&&&&&&&&&&&",
"&&&&&&&&&&&&&&&&&&&&&&&@:=o-.@@.##--o-o--oo==o+#..#-o-%#####++=%--%-*.+%o=;&&&&&&&&&&&&&&&&&&&&&&&&&",
"&&&&&&&&&&&&&&&&&&&&&&&X:o=-.@@@.++-o-o-------oo=o-oo-=o+--=%%-.+-%o#-=o=o;&&&&&&&&&&&&&&&&&&&&&&&&&",
"&&&&&&&&&&&&&&&&&&&&&&&X:=oo#@@.#++-oo-o%=%==oo-o--oo--=%:%-#@**#-%o-=o#-o&&&&&&&&&&&&&&&&&&&&&&&&&&",
"&&&&&&&&&&&&&&&&&&&&&&&&%=o-#@@.##---o-=-O@@#+-oo==-o-=o#@OOO*O*.o%oo%#.--&&&&&&&&&&&&&&&&&&&&&&&&&&",
"&&&&&&&&&&&&&&&&&&&&&&&&==o-.@@.##+-oo-=o@**XXOO**.oo-%.*@XX*XX*.-%=%+@*+#&&&&&&&&&&&&&&&&&&&&&&&&&&",
"&&&&&&&&&&&&&&&&&&&&&&&&+=o-#.@..++--o-==@@@X***@@@-o-%#*@;;*X*@+o%%-.@O-O&&&&&&&&&&&&&&&&&&&&&&&&&&",
"&&&&&&&&&&&&&&&&&&&&&&&&#=o-#@@..++-o-oo%*@***XXX@@+o-%-@@X*O@@+--=-#*.#oX&&&&&&&&&&&&&&&&&&&&&&&&&&",
"&&&&&&&&&&&&&&&&&&&&&&&&*=oo#.@.##+--o-o%#@@@@***@.-o-=o@.@@@.+---=o.O#+o&&&&&&&&&&&&&&&&&&&&&&&&&&&",
"&&&&&&&&&&&&&&&&&&&&&&&&X=oo#...##+--o---ooo-#.@@..-o-%-.##++-=%oo=%.++o.&&&&&&&&&&&&&&&&&&&&&&&&&&&",
"&&&&&&&&&&&&&&&&&&&&&&&&&=-o#.@.##+-o--------ooo-++-o-o=++-o%=+@.-o:o-o=;&&&&&&&&&&&&&&&&&&&&&&&&&&&",
"&&&&&&&&&&&&&&&&&&&&&&&&&+o:#...##+--o--=%=oo-----ooo--o=%%-.@O*@-o=:==-&&&&&&&&&&&&&&&&&&&&&&&&&&&&",
"&&&&&&&&&&&&&&&&&&&&&&&&&@=%-+..##+-o--o=@#+-o=====oo-=o+@@OO*;*@+o==%:*&&&&&&&&&&&&&&&&&&&&&&&&&&&&",
"&&&&&&&&&&&&&&&&&&&&&&&&&;o:+:+.##++o-oo=@*O*@O@@@.oo-=#@OXX**;*.--== =&&&&&&&&&&&&&&&&&&&&&&&&&&&&&",
"&&&&&&&&&&&&&&&&&&&&&&&&&&+:# =.##++oo-o%*@O**OOO@@-o-=-*@XX**;.+-oo%:X&&&&&&&&&&&&&&&&&&&&&&&&&&&&&",
"&&&&&&&&&&&&&&&&&&&&&&&&&&*%#%:+##++---o%.@*;X***@@-o-=o@@X*@@.+--o% #&&&&&&&&&&&&&&&&&&&&&&&&&&&&&&",
"&&&&&&&&&&&&&&&&&&&&&&&&&&;+-# o##++--o-==*@O*O*O@.-o-=%..#.#+++-o%:o&&&&&&&&&&&&&&&&&&&&&&&&&&&&&&&",
"&&&&&&&&&&&&&&&&&&&&&&&&&&&Xo@-%.#+++o--o%#*@@@@@@+----=o+#+++-o%: %;&&&&&&&&&&&&&&&&&&&&&&&&&&&&&&&",
"&&&&&&&&&&&&&&&&&&&&&&&&&&&&@-o+###++---o-%-@*@@.+o----+-+-+-o=%oo%;&&&&&&&&&&&&&&&&&&&&&&&&&&&&&&&&",
"&&&&&&&&&&&&&&&&&&&&&&&&&&&&;#o+.#++++-----oo--+---------+---+.=:=;&&&&&&&&&&&&&&&&&&&&&&&&&&&&&&&&&",
"&&&&&&&&&&&&&&&&&&&&&&&&&&&&&X@..###+++-----------+---+-++#@#%  +&&&&&&&&&&&&&&&&&&&&&&&&&&&&&&&&&&&",
"&&&&&&&&&&&&&&&&&&&&&&&&&&&&&&@@.##+++++--------=%--+-+#@.+=  o*&&&&&&&&&&&&&&&&&&&&&&&&&&&&&&&&&&&&",
"&&&&&&&&&&&&&&&&&&&&&&&&&&&&&&&@@.###+++++++-+-+=o++#..#-= :-*&&&&&&&&&&&&&&&&&&&&&&&&&&&&&&&&&&&&&&",
"&&&&&&&&&&&&&&&&&&&&&&&&&&&&&&&&@..###++++++++++-+.@@+o: :#;&&&&&&&&&&&&&&&&&&&&&&&&&&&&&&&&&&&&&&&&",
"&&&&&&&&&&&&&&&&&&&&&&&&&&&&&&&&&X@.####+#++++-++#.-%::-*&&&&&&&&&&&&&&&&&&&&&&&&&&&&&&&&&&&&&&&&&&&",
"&&&&&&&&&&&&&&&&&&&&&&&&&&&&&&&&&&;*.####+++++--=% :-O;&&&&&&&&&&&&&&&&&&&&&&&&&&&&&&&&&&&&&&&&&&&&&",
"&&&&&&&&&&&&&&&&&&&&&&&&&&&&&&&&&&&&&XO.####+#oo+@X&&&&&&&&&&&&&&&&&&&&&&&&&&&&&&&&&&&&&&&&&&&&&&&&&",
"&&&&&&&&&&&&&&&&&&&&&&&&&&&&&&&&&&&&&&&&;;;X;;&&&&&&&&&&&&&&&&&&&&&&&&&&&&&&&&&&&&&&&&&&&&&&&&&&&&&&",
};
