/* XPM */
static char *icon_xpm[]={
"32 32 16 1",
"  c #020202",
". c #848284",
"X c #c4c2c4",
"o c none",
"O c #242020",
"+ c #030147",
"@ c #0940e1",
"# c #007977",
"$ c #780100",
"% c #010000",
"& c #130013",
"* c #000000",
"= c #d000c8",
"- c #dfdfdf",
"; c #131313",
": c #000000",
"ooooooooooooo      ooooooooooooo",
"ooooooooooo  oo  oo  ooooooooooo",
"oooooooooo oo.    .oo oooooooooo",
"ooooooooo o...    ...o ooooooooo",
"oooooooo o.....  .....o oooooooo",
"ooooooo o.XXXXXXXXXXXX.o ooooooo",
"ooooooo o.XXXXXXXXXXXX.o ooooooo",
"oooooo o..XXXXXXXXXXXX..o oooooo",
"oooooo o..XXXXXXXXXXXX..o oooooo",
"oooooo o..XXXXXXXXXXXX..o oooooo",
"oooooo o..XXXXXXXXXXXX..o oooooo",
"oooooo  o.XXXXXXXXXXXX.o  oooooo",
"oooooo  o.XXXXXXXXXXXX.o  oooooo",
"oooooo   o............o   oooooo",
"oooooo    o..........o    oooooo",
"oooooo     oo......oo     oooooo",
"oooooo       oooooo       oooooo",
"oooooo                    oooooo",
"ooooooo       oooo       ooooooo",
"ooooooo  XXX o....o XXX  ooooooo",
"ooooooo  XXX o....o XXX  ooooooo",
"ooooooo       oooo       ooooooo",
"ooooooo                  ooooooo",
"ooooooo  XXXX XXXX XXXX  ooooooo",
"ooooooo                  ooooooo",
"ooooooo  XXXX XXXX XXXX  ooooooo",
"ooooooo                  ooooooo",
"ooooooo  XXXX XXXX XXXX  ooooooo",
"ooooooo                  ooooooo",
"ooooooo                  ooooooo",
"ooooooooo              ooooooooo",
"ooooooooooo          ooooooooooo",
};
