/* XPM */
static char *play_xpm[]={
"16 16 16 1",
"  c #543204",
". c #04fe04",
"X c #fc5254",
"o c #ac0204",
"O c #fc8284",
"+ c #fc1e1c",
"@ c #f40204",
"# c none",
"$ c #fc6e6c",
"% c #fc9a9c",
"& c #cc0204",
"* c #008100",
"= c #c0a017",
"- c #952117",
"; c #4405f8",
": c #00c134",
"################",
"##;#############",
"##;;;###########",
"##;;;;;#########",
"##;;;;;;########",
"##;;;;;;;;######",
"##;;;;;;;;;#####",
"##;;;;;;;;;;;###",
"##;;;;;;;;;;;;##",
"##;;;;;;;;;;####",
"##;;;;;;;;######",
"##;;;;;;########",
"##;;;;##########",
"##;;############",
"################",
"################",
};
